<svg xmlns="http://www.w3.org/2000/svg" width="40" height="41" viewBox="0 0 40 41">
    <path fill="none" fill-rule="evenodd" stroke="#FFF" stroke-width="2" d="M37.486 35.979a1.48 1.48 0 0 1-.385 1.408l-1.564 1.566a.486.486 0 0 1-.767-.102l-9.873-17.299-.965-.163-11.111 9.7 1.392 5.955c.121.519-.031 1.054-.408 1.431l-1.026 1.026a.462.462 0 0 1-.426.127.466.466 0 0 1-.342-.286l-2.297-5.746-2.669-2.651-5.786-2.318a.411.411 0 0 1-.25-.302.41.41 0 0 1 .114-.377l1.073-1.074a1.542 1.542 0 0 1 1.455-.416l5.933 1.39 9.69-11.125-.164-.965-17.376-9.94a.4.4 0 0 1-.085-.632L3.263 3.57c.385-.385.953-.54 1.478-.405l22.354 5.73 6.22-6.227a3.266 3.266 0 0 1 2.327-.966c.867 0 1.716.353 2.33.967.612.614.965 1.464.965 2.332 0 .868-.353 1.717-.966 2.332l-6.218 6.225 5.733 22.42z"/>
</svg>
