<svg xmlns="http://www.w3.org/2000/svg" width="65" height="60" viewBox="0 0 65 60">
    <g fill="none" fill-rule="evenodd">
        <path stroke="#EBCB80" stroke-linecap="round" stroke-width="2" d="M63.635 6.155A5.161 5.161 0 0 0 58.477.997H6.155A5.161 5.161 0 0 0 .997 6.155v41.428a5.161 5.161 0 0 0 5.158 5.158h52.322a5.161 5.161 0 0 0 5.158-5.158V6.155z"/>
        <path stroke="#EBCB80" stroke-linecap="round" stroke-width="2" d="M54.103 13.143a3.524 3.524 0 0 0-3.522-3.522h-36.53a3.524 3.524 0 0 0-3.522 3.522v27.452a3.524 3.524 0 0 0 3.522 3.522h36.53a3.524 3.524 0 0 0 3.522-3.522V13.143z"/>
        <path stroke="#EBCB80" stroke-linecap="round" stroke-width="2" d="M32.386 18.29a9.534 9.534 0 0 0-3.464-.928l-1.28 2.522a7.01 7.01 0 0 0-3.647 1.4l-2.639-1.017a9.532 9.532 0 0 0-1.953 3.007l2.002 1.997a7.01 7.01 0 0 0 .205 3.901l-1.783 2.195a9.532 9.532 0 0 0 2.257 2.787l2.518-1.287a7.01 7.01 0 0 0 3.773 1.01l1.537 2.375a9.531 9.531 0 0 0 3.348-1.285l-.446-2.793a7.01 7.01 0 0 0 2.127-3.276l2.733-.728c.164-1.195.1-2.41-.188-3.581l-2.794-.439a7.01 7.01 0 0 0-2.458-3.036l.152-2.824zm-3.535 6.263a2.399 2.399 0 0 1-1.24 4.632 2.399 2.399 0 0 1 1.24-4.632zM45.933 21.422v9.532"/>
        <path fill="#EBCB80" d="M45.933 29.593a2.725 2.725 0 0 1 2.723 2.723 2.725 2.725 0 1 1-2.723-2.723zM45.933 17.952a2.725 2.725 0 0 1 2.723 2.723 2.725 2.725 0 1 1-2.723-2.723z"/>
        <path stroke="#EBCB80" stroke-linecap="round" stroke-width="2" d="M10.529 58.188h8.17v-5.447h-8.17zM45.933 58.188h8.17v-5.447h-8.17z"/>
    </g>
</svg>
