<svg xmlns="http://www.w3.org/2000/svg" width="42" height="43" viewBox="0 0 42 43">
    <g fill="none" fill-rule="evenodd">
        <path stroke="#FFF" stroke-width="2" d="M37.706 41.432H5.087a3.265 3.265 0 0 1-3.264-3.266V14.06a3.265 3.265 0 0 1 3.264-3.266h32.62a3.266 3.266 0 0 1 3.265 3.266v24.107a3.266 3.266 0 0 1-3.266 3.266z"/>
        <path stroke="#FFF" stroke-width="2" d="M32.46 31.219h8.511V21.006h-8.51a3.404 3.404 0 0 0-3.404 3.404v3.405a3.404 3.404 0 0 0 3.404 3.404z"/>
        <path fill="#FFF" d="M35.865 26.113a1.702 1.702 0 1 1-3.403 0 1.702 1.702 0 0 1 3.403 0z"/>
        <path stroke="#FFF" stroke-width="2" d="M18.844 10.793l11.915-8.51 5.106 8.51"/>
        <path stroke="#FFF" stroke-width="2" d="M10.333 10.793l8.51-8.51 5.107 5.106"/>
    </g>
</svg>
