<svg xmlns="http://www.w3.org/2000/svg" xmlns:xlink="http://www.w3.org/1999/xlink" width="24" height="25" viewBox="0 0 24 25">
    <defs>
        <path id="a" d="M0 24.06h24V0H0z"/>
    </defs>
    <g fill="none" fill-rule="evenodd" transform="translate(0 .005)">
        <mask id="b" fill="#fff">
            <use xlink:href="#a"/>
        </mask>
        <path fill="#4B4B4B" d="M21.333 6.685c0 .369-.298.668-.666.668h-3.334a.668.668 0 0 1-.666-.668V3.342c0-.369.298-.668.666-.668h3.334c.368 0 .666.3.666.668v3.343zm0 14.037c0 .37-.298.669-.666.669H3.333a.668.668 0 0 1-.666-.669V10.027h2.276a7.376 7.376 0 0 0-.276 2.005c0 4.061 3.283 7.353 7.333 7.353 4.05 0 7.333-3.292 7.333-7.353 0-.695-.096-1.368-.276-2.005h2.276v10.695zM12 7.353a4.673 4.673 0 0 1 4.667 4.68c0 2.583-2.09 4.678-4.667 4.678a4.673 4.673 0 0 1-4.667-4.679c0-2.584 2.09-4.679 4.667-4.679zM20.667 0H3.333A3.338 3.338 0 0 0 0 3.342v17.38a3.338 3.338 0 0 0 3.333 3.342h17.334A3.338 3.338 0 0 0 24 20.722V3.342A3.338 3.338 0 0 0 20.667 0z" mask="url(#b)"/>
    </g>
</svg>
