<svg xmlns="http://www.w3.org/2000/svg" width="60" height="65" viewBox="0 0 60 65">
    <g fill="none" fill-rule="evenodd" stroke="#EBCB80" stroke-linecap="round" stroke-linejoin="round" stroke-width="2">
        <path d="M55.465.997L.997 55.465V.997z"/>
        <path d="M33.678 10.529L11.89 32.316V10.53zM2.359 7.805h4.085M2.359 21.422h4.085M2.359 14.614h4.085M2.359 35.04h4.085M2.359 28.23h4.085M21.834 50.679l25.053-27.285M48.882 63.556l5.382-36.65M54.673 16.544a5.45 5.45 0 0 1 2.577 7.26 5.45 5.45 0 0 1-7.26 2.576 5.45 5.45 0 0 1-2.576-7.26 5.45 5.45 0 0 1 7.259-2.576z"/>
        <path d="M52.917 20.232a1.362 1.362 0 1 1-1.172 2.46 1.362 1.362 0 0 1 1.172-2.46zM58.185 9.167l-2.927 6.148M33.599 29.133c6.347 8.098 13.521 11.969 24.59 11.706"/>
    </g>
</svg>
